:FULLY-SPECIFIED
:DEGREES
744
root 3.86781 16.3578 -3.27757 234.596 -93.2734 -228.58
lowerback 3.151 0.694732 2.29448
upperback 0.809937 0.992406 1.90582
thorax -0.929947 0.480584 0.628944
lowerneck -17.6819 -1.25192 -1.47075
upperneck 15.8849 -1.98634 3.17464
head 7.86744 -0.730814 1.05817
rclavicle -6.36111e-015 -1.47101e-014
rhumerus -27.5933 -4.03085 -81.3778
rradius 22.0905
rwrist 29.7222
rhand -26.8342 1.70881
rfingers 7.12502
rthumb -0.26 -28.2708
lclavicle -6.36111e-015 -1.47101e-014
lhumerus -28.1786 5.56452 88.861
lradius 19.1573
lwrist -16.9405
lhand -26.4407 1.50288
lfingers 7.12502
lthumb 0.120088 31.4826
rfemur -14.4184 10.9825 28.6767
rtibia 23.6649
rfoot -12.7863 -14.3413
rtoes -5.48957
lfemur -28.5422 -2.75343 -18.8101
ltibia 68.8525
lfoot -8.529 -2.09793
ltoes -19.845
745
root 3.87462 16.3439 -3.28975 234.923 -93.1597 -228.959
lowerback 3.13794 0.7894 2.25789
upperback 0.823052 1.11701 1.79886
thorax -0.90708 0.543802 0.535256
lowerneck -17.6445 -1.28901 -1.43298
upperneck 16.1104 -2.06761 3.22264
head 7.93838 -0.762329 1.0588
rclavicle -1.74931e-014 -2.82274e-014
rhumerus -27.3526 -4.35239 -81.4286
rradius 22.1884
rwrist 29.6864
rhand -26.701 1.54905
rfingers 7.12502
rthumb -0.13132 -28.4307
lclavicle -1.74931e-014 -2.82274e-014
lhumerus -28.1653 5.47866 88.759
lradius 19.2516
lwrist -17.05
lhand -26.201 1.59719
lfingers 7.12502
lthumb 0.351629 31.5766
rfemur -14.0045 11.1873 28.766
rtibia 23.8665
rfoot -13.3011 -14.5866
rtoes -5.29915
lfemur -29.5301 -2.68992 -18.9381
ltibia 68.3844
lfoot -10.0351 -1.98312
ltoes -20.0887
746
root 3.88055 16.3342 -3.30084 234.104 -93.0736 -228.159
lowerback 3.03747 0.838836 2.19762
upperback 0.87757 1.17612 1.71556
thorax -0.794039 0.574943 0.483433
lowerneck -17.7409 -1.31087 -1.45129
upperneck 16.3659 -2.11526 3.28358
head 8.04269 -0.778048 1.0767
rclavicle -1.19271e-014 -6.75868e-015
rhumerus -26.9869 -4.54676 -81.5046
rradius 22.1613
rwrist 29.5474
rhand -26.7918 1.72418
rfingers 7.12502
rthumb -0.219029 -28.2555
lclavicle -1.19271e-014 -6.75868e-015
lhumerus -28.0579 5.26796 88.7493
lradius 19.3441
lwrist -16.8637
lhand -26.0187 1.64858
lfingers 7.12502
lthumb 0.527692 31.6277
rfemur -13.6095 11.3246 28.8317
rtibia 24.031
rfoot -13.675 -14.8733
rtoes -5.54756
lfemur -30.4871 -2.73649 -19.0934
ltibia 67.6562
lfoot -11.3778 -1.90313
ltoes -20.0325
747
root 3.88462 16.3289 -3.3111 233.977 -92.99 -228.097
lowerback 3.0494 0.90071 2.18242
upperback 0.878554 1.25888 1.62638
thorax -0.797433 0.616852 0.397376
lowerneck -17.7325 -1.32116 -1.44218
upperneck 16.6225 -2.14898 3.3073
head 8.12824 -0.790546 1.07963
rclavicle -1.59028e-014 -1.51076e-014
rhumerus -26.8085 -4.47663 -81.6842
rradius 22.3435
rwrist 29.2354
rhand -26.758 1.4182
rfingers 7.12502
rthumb -0.186322 -28.5615
lclavicle -1.59028e-014 -1.51076e-014
lhumerus -28.0702 5.21842 88.662
lradius 19.4458
lwrist -16.7875
lhand -25.6869 1.69908
lfingers 7.12502
lthumb 0.848162 31.6771
rfemur -13.0956 11.5379 28.9306
rtibia 24.0916
rfoot -14.0252 -15.1873
rtoes -5.68685
lfemur -31.2924 -2.84134 -19.2432
ltibia 66.7027
lfoot -12.6235 -1.57551
ltoes -20.7816
748
root 3.8878 16.3208 -3.32032 233.02 -92.9136 -227.149
lowerback 3.01465 0.929258 2.15477
upperback 0.838948 1.2969 1.52748
thorax -0.816617 0.636415 0.310329
lowerneck -17.6866 -1.31576 -1.41061
upperneck 16.892 -2.16317 3.30375
head 8.21058 -0.795638 1.07225
rclavicle -7.95139e-016 -7.35503e-015
rhumerus -26.7056 -4.39084 -81.8586
rradius 22.4791
rwrist 29.1098
rhand -26.7981 1.64728
rfingers 7.12502
rthumb -0.225102 -28.3323
lclavicle -7.95139e-016 -7.35503e-015
lhumerus -28.1602 5.2364 88.5219
lradius 19.5539
lwrist -16.8652
lhand -25.384 1.73322
lfingers 7.12502
lthumb 1.14066 31.7099
rfemur -12.581 11.7624 28.9898
rtibia 24.0398
rfoot -14.4143 -15.4701
rtoes -5.49366
lfemur -32.1267 -2.95231 -19.4099
ltibia 65.5393
lfoot -13.6049 -1.20701
ltoes -21.0005
749
root 3.89131 16.318 -3.32954 232.102 -92.924 -226.237
lowerback 2.97818 0.955766 2.23065
upperback 0.834229 1.33356 1.44019
thorax -0.796838 0.655254 0.1778
lowerneck -17.7283 -1.32426 -1.41677
upperneck 17.1171 -2.18774 3.32397
head 8.29463 -0.804503 1.07744
rclavicle -2.06736e-014 -2.16675e-014
rhumerus -26.5657 -4.17206 -82.0997
rradius 22.7413
rwrist 28.7794
rhand -26.7217 1.54934
rfingers 7.12502
rthumb -0.151265 -28.4304
lclavicle -2.06736e-014 -2.16675e-014
lhumerus -28.1566 5.1617 88.414
lradius 19.6371
lwrist -16.8768
lhand -25.3233 1.65134
lfingers 7.12502
lthumb 1.1993 31.6277
rfemur -12.0538 11.8833 29.1304
rtibia 23.94
rfoot -14.7875 -15.8279
rtoes -5.68715
lfemur -32.8868 -3.14675 -19.4659
ltibia 64.1844
lfoot -14.4214 -0.778717
ltoes -21.6472
750
root 3.894 16.3151 -3.33608 231.35 -92.9486 -225.481
lowerback 2.96704 0.957329 2.28905
upperback 0.797915 1.33826 1.40308
thorax -0.825526 0.657426 0.106783
lowerneck -17.7001 -1.31528 -1.46955
upperneck 17.269 -2.16876 3.32297
head 8.3408 -0.799149 1.08858
rclavicle -3.97569e-015 3.97569e-015
rhumerus -26.493 -3.76185 -82.3272
rradius 23.0181
rwrist 28.282
rhand -26.7246 1.49831
rfingers 7.12502
rthumb -0.154051 -28.4814
lclavicle -3.97569e-015 3.97569e-015
lhumerus -28.2337 5.31591 88.3099
lradius 19.7502
lwrist -16.8276
lhand -25.2436 1.55554
lfingers 7.12502
lthumb 1.2763 31.5315
rfemur -11.4781 11.9976 29.2744
rtibia 23.7193
rfoot -14.9831 -16.0868
rtoes -5.71466
lfemur -33.5702 -3.36828 -19.5248
ltibia 62.63
lfoot -15.0275 -0.245661
ltoes -22.0608
751
root 3.89594 16.3043 -3.34186 230.353 -92.9864 -224.456
lowerback 2.93129 0.970518 2.36153
upperback 0.755233 1.35825 1.35074
thorax -0.846012 0.66732 0.0121419
lowerneck -17.7009 -1.32317 -1.48541
upperneck 17.4215 -2.17951 3.30787
head 8.39262 -0.806535 1.08516
rclavicle -1.98785e-014 1.19271e-015
rhumerus -26.4731 -3.34553 -82.5855
rradius 23.3507
rwrist 27.6138
rhand -26.7583 1.50583
rfingers 7.12502
rthumb -0.186617 -28.4738
lclavicle -1.98785e-014 1.19271e-015
lhumerus -28.3288 5.21335 88.2827
lradius 19.8837
lwrist -16.604
lhand -25.1025 1.59408
lfingers 7.12502
lthumb 1.41253 31.5691
rfemur -10.8664 12.1639 29.4083
rtibia 23.3759
rfoot -15.2797 -16.3419
rtoes -5.36979
lfemur -34.2382 -3.51203 -19.5635
ltibia 60.9091
lfoot -15.6169 0.162786
ltoes -22.1113
752
root 3.89605 16.3106 -3.34696 228.338 -92.9982 -222.412
lowerback 2.89539 0.984474 2.41732
upperback 0.726926 1.37832 1.26103
thorax -0.851064 0.677603 -0.11125
lowerneck -17.7035 -1.34986 -1.47726
upperneck 17.4992 -2.21615 3.28006
head 8.41984 -0.825965 1.0701
rclavicle -3.18055e-015 -1.82882e-014
rhumerus -26.4723 -2.85344 -82.8831
rradius 23.7323
rwrist 27.029
rhand -26.7734 1.49083
rfingers 7.12502
rthumb -0.201261 -28.4888
lclavicle -3.18055e-015 -1.82882e-014
lhumerus -28.399 5.22112 88.1887
lradius 20.0375
lwrist -16.4724
lhand -24.9754 1.66994
lfingers 7.12502
lthumb 1.53533 31.6442
rfemur -10.1646 12.2467 29.4659
rtibia 22.8824
rfoot -15.5168 -16.6111
rtoes -5.65822
lfemur -34.813 -3.73447 -19.6543
ltibia 58.9628
lfoot -16.0267 0.62378
ltoes -22.2441
753
root 3.89614 16.3147 -3.35108 227.225 -93.0863 -221.25
lowerback 2.81674 0.973466 2.50386
upperback 0.720386 1.36356 1.24224
thorax -0.811521 0.670543 -0.176922
lowerneck -17.7045 -1.35542 -1.50329
upperneck 17.483 -2.20474 3.23007
head 8.41383 -0.82739 1.05895
rclavicle 1.35174e-014 1.72943e-014
rhumerus -26.4456 -2.05302 -83.2248
rradius 24.1709
rwrist 25.994
rhand -26.8873 1.51898
rfingers 7.12502
rthumb -0.311198 -28.4605
lclavicle 1.35174e-014 1.72943e-014
lhumerus -28.4299 5.4242 88.0876
lradius 20.1487
lwrist -16.5005
lhand -24.991 1.6684
lfingers 7.12502
lthumb 1.52022 31.6427
rfemur -9.45171 12.2881 29.6024
rtibia 22.295
rfoot -15.7936 -16.7775
rtoes -5.07684
lfemur -35.2678 -3.93833 -19.6322
ltibia 56.8052
lfoot -16.3228 0.94601
ltoes -22.027
754
root 3.89558 16.3187 -3.35473 226.463 -93.1991 -220.4
lowerback 2.73481 0.974735 2.62468
upperback 0.689805 1.36657 1.22676
thorax -0.793696 0.671985 -0.259154
lowerneck -17.7197 -1.36849 -1.50001
upperneck 17.4497 -2.20346 3.14735
head 8.40408 -0.834827 1.03062
rclavicle -2.06736e-014 -2.08724e-014
rhumerus -26.5175 -1.55762 -83.4196
rradius 24.6595
rwrist 25.769
rhand -26.8118 1.43923
rfingers 7.12502
rthumb -0.238275 -28.5404
lclavicle -2.06736e-014 -2.08724e-014
lhumerus -28.4866 5.59235 88.012
lradius 20.2383
lwrist -16.5262
lhand -25.0931 1.585
lfingers 7.12502
lthumb 1.42168 31.56
rfemur -8.69178 12.33 29.7668
rtibia 21.4812
rfoot -15.731 -17.0055
rtoes -5.47901
lfemur -35.7245 -4.07288 -19.6105
ltibia 54.4517
lfoot -16.4678 1.36228
ltoes -22.3232
755
root 3.89413 16.3265 -3.35779 225.108 -93.2436 -218.935
lowerback 2.62795 0.965305 2.63428
upperback 0.665429 1.35132 1.21972
thorax -0.758826 0.664776 -0.269485
lowerneck -17.7402 -1.35908 -1.52716
upperneck 17.364 -2.16126 3.06872
head 8.37688 -0.824495 1.01367
rclavicle -7.95139e-016 7.55382e-015
rhumerus -26.59 -0.873803 -83.6522
rradius 25.1932
rwrist 25.2066
rhand -26.817 1.4997
rfingers 7.12502
rthumb -0.243367 -28.4799
lclavicle -7.95139e-016 7.55382e-015
lhumerus -28.5994 5.77409 87.9764
lradius 20.3891
lwrist -16.5894
lhand -25.1786 1.45857
lfingers 7.12502
lthumb 1.33905 31.4341
rfemur -7.87584 12.3736 29.8393
rtibia 20.554
rfoot -15.6467 -17.1815
rtoes -5.52923
lfemur -36.0324 -4.28692 -19.6064
ltibia 51.8928
lfoot -16.6127 1.61433
ltoes -22.1611
756
root 3.89113 16.3361 -3.36054 224.466 -93.3079 -218.194
lowerback 2.5225 0.969952 2.68015
upperback 0.652569 1.35524 1.2203
thorax -0.711808 0.667168 -0.292763
lowerneck -17.7671 -1.35667 -1.51121
upperneck 17.2462 -2.13439 2.96845
head 8.33975 -0.820695 0.980388
rclavicle 8.74653e-015 -1.39149e-015
rhumerus -26.6564 -0.135388 -83.9225
rradius 25.6935
rwrist 24.3945
rhand -26.8425 1.37392
rfingers 7.12502
rthumb -0.267986 -28.6057
lclavicle 8.74653e-015 -1.39149e-015
lhumerus -28.6872 5.75425 88.024
lradius 20.5639
lwrist -16.3762
lhand -25.2716 1.49948
lfingers 7.12502
lthumb 1.24924 31.4756
rfemur -6.98376 12.4219 29.9568
rtibia 19.4921
rfoot -15.6051 -17.4263
rtoes -5.92398
lfemur -36.2563 -4.46944 -19.5402
ltibia 49.1913
lfoot -16.5417 1.70856
ltoes -22.0175
757
root 3.88772 16.3485 -3.36198 223.757 -93.3508 -217.359
lowerback 2.4136 0.97729 2.7045
upperback 0.620923 1.3627 1.21862
thorax -0.682478 0.671134 -0.306568
lowerneck -17.7914 -1.35966 -1.50794
upperneck 17.1392 -2.11475 2.87942
head 8.30633 -0.820001 0.952151
rclavicle 1.27222e-014 -2.18663e-015
rhumerus -26.7404 0.364094 -84.0927
rradius 26.1121
rwrist 24.0135
rhand -27.0344 1.72094
rfingers 7.12502
rthumb -0.453312 -28.2583
lclavicle 1.27222e-014 -2.18663e-015
lhumerus -28.7515 5.79447 88.0689
lradius 20.6858
lwrist -16.0068
lhand -25.4254 1.63056
lfingers 7.12502
lthumb 1.10071 31.6075
rfemur -6.04528 12.3596 30.0386
rtibia 18.2691
rfoot -15.3728 -17.412
rtoes -5.6514
lfemur -36.4331 -4.64085 -19.4842
ltibia 46.3473
lfoot -16.2516 1.74661
ltoes -21.9953
